<?xml version="1.0" standalone="no"?>
<!DOCTYPE svg PUBLIC "-//W3C//DTD SVG 1.1//EN" "http://www.w3.org/Graphics/SVG/1.1/DTD/svg11.dtd">
<svg width="800px" height="400px"
     viewBox="0 0 570 290" preserveAspectRatio="none"
	 xmlns="http://www.w3.org/2000/svg" version="1.1"
	 xmlns:xlink="http://www.w3.org/1999/xlink">
<style>
text {
	font-family : Verdana, Tahoma, sans-serif;
	font-size : 11px;
	fill : black;
	stroke : none;
}
#percentage_numbers text {
	text-anchor : end;
}
#x_axis_numbers text {
	text-anchor : middle;
}
</style>
<desc>Stock Market Crash, 1929</desc>
<defs>
	<line id="horizontal_line" x1="1928.75" x2="1930.75" y1="0" y2="0" stroke="black" stroke-width="1" />
	<line id="horizontal_line2" x1="1928.75" x2="1930.75" y1="0" y2="0" stroke-width=".3" stroke="#000" />
	
	<line id="vertical_line" x1="0" x2="0" y1="400" y2="0" stroke="black" stroke-width=".0003" />
	<line id="vertical_line_quart" x1="0" x2="0" y1="400" y2="-10" stroke="black" stroke-width=".0003" />
	<line id="vertical_line_bold" x1="0" x2="0" y1="400" y2="-10" stroke="black" stroke-width=".0020" />
</defs>
<!--
	ORDER OF TRANSFORMATIONS:
	(1)	Shift origin from (x, y) to (0, 0) (e.g., from [2004, 0] to [0, 0])
	(2)	Scale as appropriate
	(3)	Shift back to viewport's origin
	(4)	Shift away from edge as desired
	
	In working out your calculations, opt for a number that divides nicely into 100s (e.g., 1, 2, 2.5, 5, 10, 20, 25, etc.)
	
	CALCULATIONS:
	Horizontal	=	Width/Range
				=	800/ 2010-1900
				~	 7
	Vertical	=	[-1 * Height]/Range
				=	-250 / (13000 - 0) 
				~	-.02
-->
<g transform="translate(50 -43)">	
	<g transform="translate(0 290) scale(240 -.55) translate(-1928.75 0)">
		<!-- Plot -->
		<path fill="#88B" d="
			M	1930.75001	0
			L	1930.75	214.14
			L	1930.746119	204.9
			L	1930.743379	208.14
			L	1930.73516	213.27
			L	1930.73242	217.75
			L	1930.72968	222.1
			L	1930.726941	226.75
			L	1930.724201	222.78
			L	1930.715982	229.02
			L	1930.713242	234.18
			L	1930.710502	237.74
			L	1930.707763	237.22
			L	1930.705023	236.62
			L	1930.696804	241.17
			L	1930.694064	242.88
			L	1930.691324	245.09
			L	1930.688584	244.29
			L	1930.685845	242.84
			L	1930.677626	240.37
			L	1930.674886	236.04
			L	1930.672146	237.54
			L	1930.669406	240.42
			L	1930.660046	240.42
			L	1930.657306	237.79
			L	1930.654566	237.93
			L	1930.651826	235.47
			L	1930.649087	231.52
			L	1930.640868	232.63
			L	1930.638128	231.27
			L	1930.635388	232.98
			L	1930.632648	230.68
			L	1930.629909	227.79
			L	1930.621689	228.55
			L	1930.61895	221.08
			L	1930.61621	220.35
			L	1930.61347	217.24
			L	1930.610731	224.13
			L	1930.602511	222.82
			L	1930.599772	232.69
			L	1930.597032	234.38
			L	1930.594292	238.47
			L	1930.591553	238.16
			L	1930.583333	233.57
			L	1930.582192	233.99
			L	1930.579452	231.08
			L	1930.576712	238.4
			L	1930.573973	240.81
			L	1930.565753	237.48
			L	1930.563014	235.51
			L	1930.560274	239.33
			L	1930.557534	234.3
			L	1930.554795	229.29
			L	1930.546575	240.57
			L	1930.543836	239.07
			L	1930.541096	235.63
			L	1930.538356	233.79
			L	1930.535616	234.21
			L	1930.527397	224.86
			L	1930.524658	227.39
			L	1930.521918	222.04
			L	1930.519178	219.08
			L	1930.516438	218.33
			L	1930.505479	222.46
			L	1930.50274	225.25
			L	1930.5	223.03
			L	1930.496119	226.34
			L	1930.4879	218.78
			L	1930.48516	220.58
			L	1930.48242	215.58
			L	1930.47968	211.84
			L	1930.476941	219.58
			L	1930.468721	221.92
			L	1930.465982	228.97
			L	1930.463242	218.84
			L	1930.460502	228.57
			L	1930.457763	230.05
			L	1930.449543	249.69
			L	1930.446804	247.18
			L	1930.444064	249.08
			L	1930.441324	257.29
			L	1930.438584	250.78
			L	1930.430365	263.93
			L	1930.427626	268.59
			L	1930.424886	272.44
			L	1930.422146	271.18
			L	1930.419406	274.45
			L	1930.410046	275.07
			L	1930.407306	273.84
			L	1930.404566	272.43
			L	1930.401826	272.14
			L	1930.393607	270.01
			L	1930.390868	266.89
			L	1930.388128	265.52
			L	1930.385388	267.1
			L	1930.382648	265.87
			L	1930.374429	271.52
			L	1930.371689	269.91
			L	1930.36895	274.4
			L	1930.36621	274.17
			L	1930.36347	270.16
			L	1930.355251	267.29
			L	1930.352511	263.93
			L	1930.349772	263.69
			L	1930.347032	268.81
			L	1930.344292	259.68
			L	1930.336073	266.56
			L	1930.333333	274.59
			L	1930.329452	279.23
			L	1930.326712	278.43
			L	1930.323973	276.94
			L	1930.315753	285.76
			L	1930.313014	286.18
			L	1930.310274	288.78
			L	1930.307534	290.01
			L	1930.304795	288.23
			L	1930.293836	294.07
			L	1930.291096	292.2
			L	1930.288356	293.26
			L	1930.285616	293.18
			L	1930.277397	292.65
			L	1930.274658	292.19
			L	1930.271918	291.15
			L	1930.269178	288.36
			L	1930.266438	290.19
			L	1930.258219	288.35
			L	1930.255479	285.77
			L	1930.25274	285.27
			L	1930.25	287.11
			L	1930.248858	286.1
			L	1930.240639	283.85
			L	1930.2379	281.63
			L	1930.23516	283.22
			L	1930.23242	280.5
			L	1930.22968	279.11
			L	1930.221461	280.55
			L	1930.218721	279.41
			L	1930.215982	277.88
			L	1930.213242	277.27
			L	1930.210502	274.26
			L	1930.202283	271.34
			L	1930.199543	273.47
			L	1930.196804	272.13
			L	1930.194064	276.25
			L	1930.191324	276.85
			L	1930.183105	275.57
			L	1930.180365	274.51
			L	1930.177626	270.59
			L	1930.174886	273.51
			L	1930.172146	271.11
			L	1930.157306	271.11
			L	1930.154566	269.39
			L	1930.151826	269.06
			L	1930.149087	262.8
			L	1930.146347	262.47
			L	1930.138128	265.81
			L	1930.135388	263.41
			L	1930.132648	268.46
			L	1930.129909	270.73
			L	1930.127169	270.54
			L	1930.11895	271.52
			L	1930.11621	272.27
			L	1930.110731	271.05
			L	1930.107991	268.56
			L	1930.099772	267.82
			L	1930.097032	268.56
			L	1930.094292	272.06
			L	1930.091553	268.48
			L	1930.088813	266.54
			L	1930.082192	267.14
			L	1930.079452	263.28
			L	1930.076712	262.18
			L	1930.073973	257.9
			L	1930.071233	260.93
			L	1930.063014	256.31
			L	1930.060274	253.52
			L	1930.057534	250.19
			L	1930.054795	249.58
			L	1930.052055	247.31
			L	1930.043836	246.33
			L	1930.041096	248.99
			L	1930.038356	251.54
			L	1930.035616	250.44
			L	1930.032877	249.62
			L	1930.024658	250.03
			L	1930.021918	249.68
			L	1930.019178	245.7
			L	1930.016438	246.5
			L	1930.013699	248.1
			L	1930.005479	247.19
			L	1930.00274	244.2
			L	1929.998858	248.48
			L	1929.996119	241.06
			L	1929.9879	240.66
			L	1929.98516	240.96
			L	1929.97968	234.07
			L	1929.976941	232.65
			L	1929.968721	230.89
			L	1929.965982	240.42
			L	1929.963242	246.84
			L	1929.960502	249.58
			L	1929.957763	245.88
			L	1929.949543	249.6
			L	1929.946804	243.14
			L	1929.944064	258.44
			L	1929.941324	262.2
			L	1929.938584	259.18
			L	1929.930365	260.12
			L	1929.927626	251.51
			L	1929.924886	254.64
			L	1929.922146	249.61
			L	1929.919406	241.7
			L	1929.904566	238.95
			L	1929.901826	235.35
			L	1929.899087	243.44
			L	1929.890868	245.74
			L	1929.888128	248.49
			L	1929.885388	241.23
			L	1929.882648	234.02
			L	1929.879909	227.56
			L	1929.871689	228.73
			L	1929.86895	217.28
			L	1929.86894	0
			L	1929.777398	0
			L	1929.777397	352.69
			L	1929.774658	352.86
			L	1929.771918	346.66
			L	1929.769178	345
			L	1929.766438	345.72
			L	1929.758219	325.17
			L	1929.755479	329.95
			L	1929.75274	344.5
			L	1929.75	342.57
			L	1929.746119	343.45
			L	1929.7379	344.87
			L	1929.73516	355.95
			L	1929.73242	352.57
			L	1929.72968	352.61
			L	1929.726941	359
			L	1929.718721	362.05
			L	1929.715982	369.97
			L	1929.713242	370.9
			L	1929.710502	368.52
			L	1929.707763	372.39
			L	1929.699543	366.85
			L	1929.696804	366.35
			L	1929.694064	370.91
			L	1929.691324	367.29
			L	1929.688584	374.93
			L	1929.680365	376.29
			L	1929.677626	369.77
			L	1929.674886	379.61
			L	1929.672146	381.17
			L	1929.662785	380.33
			L	1929.660046	376.18
			L	1929.657306	372.06
			L	1929.654566	373.79
			L	1929.651826	374.46
			L	1929.643607	374.61
			L	1929.640868	369.95
			L	1929.638128	365.55
			L	1929.635388	367.67
			L	1929.632648	365.2
			L	1929.624429	361.49
			L	1929.621689	354.42
			L	1929.61895	354.86
			L	1929.61621	354.03
			L	1929.61347	351.13
			L	1929.605251	337.99
			L	1929.602511	352.1
			L	1929.599772	348.44
			L	1929.597032	351.39
			L	1929.594292	352.5
			L	1929.586073	353.08
			L	1929.583333	350.56
			L	1929.582192	347.7
			L	1929.579452	343.12
			L	1929.576712	339.21
			L	1929.568493	345.47
			L	1929.565753	344.67
			L	1929.563014	343.04
			L	1929.560274	345.48
			L	1929.557534	341.37
			L	1929.549315	345.2
			L	1929.546575	344.59
			L	1929.543836	345.63
			L	1929.541096	344.24
			L	1929.538356	341.93
			L	1929.530137	346.37
			L	1929.527397	343.04
			L	1929.524658	343.3
			L	1929.521918	345.57
			L	1929.519178	346.55
			L	1929.510959	344.27
			L	1929.505479	341.99
			L	1929.50274	340.28
			L	1929.5	335.22
			L	1929.490639	331.65
			L	1929.4879	328.91
			L	1929.48516	328.6
			L	1929.48242	326.16
			L	1929.47968	321.15
			L	1929.471461	320.68
			L	1929.468721	317.73
			L	1929.465982	316.41
			L	1929.463242	319.67
			L	1929.460502	319.33
			L	1929.452283	313.68
			L	1929.449543	313.05
			L	1929.446804	306.68
			L	1929.444064	306.64
			L	1929.441324	303.27
			L	1929.433105	307.46
			L	1929.430365	307.72
			L	1929.427626	307.68
			L	1929.424886	310.57
			L	1929.422146	304.2
			L	1929.415525	297.41
			L	1929.410046	296.76
			L	1929.407306	298.87
			L	1929.404566	293.42
			L	1929.396347	305.64
			L	1929.393607	308.09
			L	1929.390868	300.83
			L	1929.388128	314.09
			L	1929.385388	312.7
			L	1929.377169	321.38
			L	1929.374429	320.09
			L	1929.371689	319.35
			L	1929.36895	320.79
			L	1929.36621	316.49
			L	1929.357991	325.7
			L	1929.355251	321.17
			L	1929.352511	323.51
			L	1929.349772	321.91
			L	1929.347032	326.16
			L	1929.338813	325.56
			L	1929.336073	321.52
			L	1929.333333	320.13
			L	1929.329452	319.29
			L	1929.326712	313.84
			L	1929.318493	314.15
			L	1929.315753	314.28
			L	1929.313014	315.66
			L	1929.310274	316.62
			L	1929.307534	315.33
			L	1929.299315	310.58
			L	1929.296575	311.87
			L	1929.293836	309.91
			L	1929.291096	304.19
			L	1929.288356	302.43
			L	1929.280137	305.43
			L	1929.277397	304.09
			L	1929.274658	300.67
			L	1929.271918	299.13
			L	1929.269178	301.49
			L	1929.260959	303.04
			L	1929.258219	305.37
			L	1929.255479	300.35
			L	1929.25274	303.49
			L	1929.25	300.4
			L	1929.240639	308.85
			L	1929.2379	303.22
			L	1929.23516	296.51
			L	1929.23242	297.5
			L	1929.224201	310.26
			L	1929.221461	314.63
			L	1929.218721	316.44
			L	1929.215982	317.53
			L	1929.213242	317.59
			L	1929.205023	319.7
			L	1929.202283	316.26
			L	1929.199543	310.29
			L	1929.196804	306.14
			L	1929.194064	305.75
			L	1929.185845	311.59
			L	1929.183105	308.99
			L	1929.180365	305.2
			L	1929.177626	310.2
			L	1929.174886	313.86
			L	1929.166667	321.18
			L	1929.157306	317.41
			L	1929.154566	314.53
			L	1929.151826	311.25
			L	1929.149087	311.24
			L	1929.138128	310.06
			L	1929.135388	305.99
			L	1929.132648	301.1
			L	1929.129909	300.74
			L	1929.121689	300.41
			L	1929.11895	306.49
			L	1929.11621	308.07
			L	1929.110731	310.35
			L	1929.102511	301.53
			L	1929.099772	305.75
			L	1929.097032	317.18
			L	1929.094292	322.06
			L	1929.091553	319.05
			L	1929.083333	319.68
			L	1929.082192	317.51
			L	1929.079452	312.6
			L	1929.076712	312.6
			L	1929.073973	314.04
			L	1929.065753	315.13
			L	1929.063014	309.39
			L	1929.060274	310.33
			L	1929.057534	307.06
			L	1929.054795	304.64
			L	1929.046575	304.14
			L	1929.043836	303.95
			L	1929.041096	302.66
			L	1929.038356	297.66
			L	1929.035616	304.06
			L	1929.027397	301.66
			L	1929.024658	301.58
			L	1929.021918	300.83
			L	1929.019178	296.98
			L	1929.016438	297.7
			L	1929.008219	304.75
			L	1929.005479	305.72
			L	1929.00274	307.01
			L	1928.998858	300
			L	1928.990639	296.52
			L	1928.9879	290.95
			L	1928.98516	286.13
			L	1928.97968	287.89
			L	1928.971461	286.53
			L	1928.968721	282.01
			L	1928.965982	280.5
			L	1928.963242	275.42
			L	1928.960502	270.23
			L	1928.952283	272.26
			L	1928.949543	266.88
			L	1928.946804	266.82
			L	1928.944064	269.34
			L	1928.941324	263.95
			L	1928.933105	271.05
			L	1928.930365	279.79
			L	1928.927626	290.68
			L	1928.924886	291.3
			L	1928.922146	289.23
			L	1928.912785	293.38
			L	1928.907306	295.62
			L	1928.904566	292.39
			L	1928.901826	291.16
			L	1928.893607	288.22
			L	1928.890868	290.34
			L	1928.888128	280.53
			L	1928.885388	283.9
			L	1928.882648	278.78
			L	1928.874429	276.66
			L	1928.871689	269.42
			L	1928.86895	268.6
			L	1928.86621	269.89
			L	1928.86347	269.67
			L	1928.855251	263.05
			L	1928.852511	261.11
			L	1928.849772	260.68
			L	1928.844292	257.58
			L	1928.836073	254.38
			L	1928.833333	255.23
			L	1928.832192	252.16
			L	1928.829452	253.7
			L	1928.826712	257.13
			L	1928.818493	251.44
			L	1928.815753	256.48
			L	1928.813014	257.03
			L	1928.810274	256.04
			L	1928.807534	253.6
			L	1928.799315	256.59
			L	1928.796575	251.88
			L	1928.793836	250.87
			L	1928.791096	249.43
			L	1928.788356	249.85
			L	1928.777397	247.69
			L	1928.774658	246.53
			L	1928.771918	241.73
			L	1928.769178	239.55
			L	1928.760959	240.44
			L	1928.758219	240
			L	1928.755479	237.75
			L	1928.75274	238.14
			L	1928.75	240.01

V 0 z" />

		<path fill="#B88" d="
			M	1929.86896	0
			L	1929.86895	217.28
			L	1929.86621	198.69
			L	1929.86347	209.74
			L	1929.860731	220.39
			L	1929.852511	236.53
			L	1929.849772	238.19
			L	1929.847032	232.13
			L	1929.841553	257.68
			L	1929.832192	273.51
			L	1929.829452	258.47
			L	1929.826712	230.07
			L	1929.823973	260.64
			L	1929.815753	301.22
			L	1929.813014	299.47
			L	1929.810274	305.85
			L	1929.807534	326.51
			L	1929.804795	320.91
			L	1929.796575	333.29
			L	1929.793836	341.86
			L	1929.791096	336.13
			L	1929.788356	347.24
			L	1929.785616	350.97
			L	1929.777397	352.69
			L	1929.774658	352.86
V 0 z" />			
		<!-- Horizontal gridlines -->
		<g>
			<use xlink:href="#horizontal_line" x="0" y="0" />
			<use xlink:href="#horizontal_line2" x="0" y="100" />
			<use xlink:href="#horizontal_line2" x="0" y="200" />
			<use xlink:href="#horizontal_line2" x="0" y="300" />
			<use xlink:href="#horizontal_line2" x="0" y="400" />
		</g>
		<!-- Vertical ticks -->
		<g>
			<use xlink:href="#vertical_line_quart" x="1928.75" y="0" />
			<use xlink:href="#vertical_line" x="1928.833333" y="0" />
			<use xlink:href="#vertical_line" x="1928.916667" y="0" />
			<use xlink:href="#vertical_line_bold" x="1929" y="0" />
			<use xlink:href="#vertical_line" x="1929.083333" y="0" />
			<use xlink:href="#vertical_line" x="1929.166667" y="0" />
			<use xlink:href="#vertical_line_quart" x="1929.25" y="0" />
			<use xlink:href="#vertical_line" x="1929.333333" y="0" />
			<use xlink:href="#vertical_line" x="1929.416667" y="0" />
			<use xlink:href="#vertical_line_quart" x="1929.5" y="0" />
			<use xlink:href="#vertical_line" x="1929.583333" y="0" />
			<use xlink:href="#vertical_line" x="1929.666667" y="0" />
			<use xlink:href="#vertical_line_quart" x="1929.75" y="0" />
			<use xlink:href="#vertical_line" x="1929.833333" y="0" />
			<use xlink:href="#vertical_line" x="1929.916667" y="0" />
			<use xlink:href="#vertical_line_bold" x="1930" y="0" />
			<use xlink:href="#vertical_line" x="1930.083333" y="0" />
			<use xlink:href="#vertical_line" x="1930.166667" y="0" />
			<use xlink:href="#vertical_line_quart" x="1930.25" y="0" />
			<use xlink:href="#vertical_line" x="1930.333333" y="0" />
			<use xlink:href="#vertical_line" x="1930.416667" y="0" />
			<use xlink:href="#vertical_line_quart" x="1930.5" y="0" />
			<use xlink:href="#vertical_line" x="1930.583333" y="0" />
			<use xlink:href="#vertical_line" x="1930.666667" y="0" />
			<use xlink:href="#vertical_line_quart" x="1930.75" y="0" />
		</g>
	</g>
		<!-- Text can't be scaled or it goes strange. Its location must be calculated directly. -->
	<text x="230" y="60" text-anchor="middle">Schwarzer Donnerstag im Dow Jones Industrial Average, 1929</text>
	<!-- Y-axis -->
	<g id="percentage_numbers" transform="translate(-5 0)" font-size="12"  text-anchor="end">
		<text x="0" y="238">100</text>
		<text x="0" y="184">200</text>
		<text x="0" y="130">300</text>
		<text x="0" y="76">400</text>
	</g>
	<!-- X-axis -->
	<g id="x_axis_numbers" transform="translate(0 55)" font-size="12" text-anchor="middle">
		<text x="0" y="250">Okt</text>
		<text x="60" y="250">Jan</text>
		<text x="120" y="250">Apr</text>
		<text x="180" y="250">Jul</text>
		<text x="240" y="250">Okt</text>
		<text x="300" y="250">Jan</text>
		<text x="360" y="250">Apr</text>
		<text x="420" y="250">Jul</text>
		<text x="480" y="250">Okt</text>
		<text x="180" y="268" font-weight="bold" font-size="13">1929</text>
		<text x="420" y="268" font-weight="bold" font-size="13">1930</text>
	</g>
</g>
</svg>
